<?xml version="1.0" encoding="UTF-8"?><svg xmlns="http://www.w3.org/2000/svg" viewBox="0 0 50 50"><path style="line-height:normal;text-indent:0;text-align:start;text-decoration-line:none;text-decoration-style:solid;text-decoration-color:#000;text-transform:none;block-progression:tb;isolation:auto;mix-blend-mode:normal" d="M25 2C12.31 2 2 12.31 2 25s10.31 23 23 23 23-10.31 23-23S37.69 2 25 2zm0 2c11.61 0 21 9.39 21 21s-9.39 21-21 21S4 36.61 4 25 13.39 4 25 4zm0 2c-2.014 0-3.955.318-5.775.898a1 1 0 0 0-.608 1.364l5.47 12.148a1 1 0 0 0 1.825 0l5.47-12.148a1 1 0 0 0-.607-1.364A18.997 18.997 0 0 0 25 6zm0 2c1.404 0 2.72.305 4.025.627L25 17.564l-4.025-8.937C22.279 8.305 23.596 8 25 8zm-9.316.639a1 1 0 0 0-.553.146 19.077 19.077 0 0 0-5.695 5.336 1 1 0 0 0-.09.99l8.392 18.305a1 1 0 0 0 1.793.05l3.936-7.458 3.064-.006 3.938 7.465a1 1 0 0 0 1.793-.051l8.392-18.305a1 1 0 0 0-.09-.99 19.077 19.077 0 0 0-5.695-5.336 1 1 0 0 0-.574-.144 1 1 0 0 0-.852.572l-6.949 14.789-2.986.004-6.951-14.793a1 1 0 0 0-.873-.574zm-.414 2.539l6.482 13.797-3.043 5.761-7.28-15.879c1.072-1.428 2.377-2.649 3.84-3.68zm19.46 0c1.464 1.03 2.77 2.251 3.84 3.68l-7.279 15.878-3.043-5.761 6.482-13.797zM7.88 18.55a1 1 0 0 0-.986.697A18.978 18.978 0 0 0 6 25c0 7.695 4.591 14.318 11.182 17.3l-.008.018A18.947 18.947 0 0 0 25 44c2.556 0 4.995-.512 7.225-1.43.2-.082.402-.163.6-.252l-.009-.017C39.408 39.318 44 32.695 44 25c0-2.006-.317-3.937-.893-5.752a1 1 0 0 0-.99-.697 1 1 0 0 0-.869.576l-9.734 20.861-5.633-10.463a1 1 0 0 0-.904-.525 1 1 0 0 0-.858.525l-5.633 10.461-9.734-20.859a1 1 0 0 0-.873-.576zm.441 4.383l7.565 16.21C11.2 36.122 8 31 8 25c0-.721.232-1.37.32-2.066zm33.36 0c.088.696.32 1.345.32 2.066 0 6-3.2 11.12-7.885 14.145l7.565-16.211zM25 32.109l4.926 9.149A16.95 16.95 0 0 1 25 42c-1.717 0-3.366-.27-4.926-.742L25 32.109z"/><metadata><rdf:RDF xmlns:rdf="http://www.w3.org/1999/02/22-rdf-syntax-ns#" xmlns:rdfs="http://www.w3.org/2000/01/rdf-schema#" xmlns:dc="http://purl.org/dc/elements/1.1/"><rdf:Description about="https://iconscout.com/legal#licenses" dc:title="volkswagen" dc:description="volkswagen" dc:publisher="Iconscout" dc:date="2017-12-09" dc:format="image/svg+xml" dc:language="en"><dc:creator><rdf:Bag><rdf:li>Icons8</rdf:li></rdf:Bag></dc:creator></rdf:Description></rdf:RDF></metadata></svg>